Coordinates
version=1
nRows=18
nColumns=22
inDegrees=yes

Units are S.I. units (second, meters, Newtons, ...)
If the header above contains a line with 'inDegrees', this indicates whether rotational values are in degrees (yes) or radians (no).

endheader
time	pelvis_tilt	pelvis_list	pelvis_rotation	pelvis_tx	pelvis_ty	pelvis_tz	hip_flexion_r	hip_adduction_r	hip_rotation_r	knee_angle_r	ankle_angle_r	subtalar_angle_r	hip_flexion_l	hip_adduction_l	hip_rotation_l	knee_angle_l	ankle_angle_l	subtalar_angle_l	lumbar_extension	lumbar_bending	lumbar_rotation
      0.01000000	     -1.53103689	      2.93512839	    177.00212370	      0.25028826	      0.93195760	      1.03849664	      0.58912610	      1.55327154	     -0.92003597	    -11.24639421	      7.83335675	      1.61153174	      2.29630398	     -6.46281347	    -11.71019257	    -16.98268029	     12.21844146	      1.53948184	     -3.72970162	     -0.11016482	      0.45500720
      0.02000000	     -1.44048906	      2.99280103	    176.98280947	      0.24982572	      0.93174298	      1.03897304	      0.62547428	      1.58484692	     -0.87197667	    -11.20228933	      7.82708058	      1.42721493	      2.46478219	     -6.50213303	    -11.65254543	    -17.20166355	     12.40892239	      1.59242813	     -3.64231989	     -0.02016132	      0.52600779
      0.03000000	     -1.38867418	      3.02481407	    176.96504290	      0.24921139	      0.93157773	      1.03960696	      0.60132884	      1.57275690	     -0.83492556	    -11.14133545	      7.87645415	      1.36079448	      2.56843036	     -6.49122891	    -11.56872680	    -17.38975690	     12.62535240	      1.52932108	     -3.59766382	      0.04385487	      0.60329662
      0.04000000	     -1.24885128	      3.10216626	    176.94655199	      0.24854416	      0.93127458	      1.04030014	      0.69056769	      1.61161634	     -0.83607863	    -11.12896758	      7.90972387	      1.19740240	      2.80583817	     -6.54229506	    -11.50828880	    -17.66874193	     12.85439319	      1.30023747	     -3.45539512	      0.16066408	      0.69824047
      0.05000000	     -1.19188318	      3.13527682	    176.91732962	      0.24773439	      0.93107668	      1.04108548	      0.67045188	      1.58974481	     -0.79267062	    -11.09146615	      8.01633621	      1.16657045	      2.90541595	     -6.52180011	    -11.42733324	    -17.87162656	     13.12139562	      1.21618854	     -3.40608356	      0.22094514	      0.78203875
      0.06000000	     -1.04644676	      3.21858724	    176.88433575	      0.24690705	      0.93074380	      1.04190066	      0.77324785	      1.62549351	     -0.79715516	    -11.11140415	      8.09267243	      1.09950335	      3.13451183	     -6.57142034	    -11.38700753	    -18.15195069	     13.39485489	      0.95379755	     -3.26091565	      0.33864839	      0.88906134
      0.07000000	     -0.95227994	      3.26676584	    176.84565524	      0.24599203	      0.93047100	      1.04278165	      0.82604895	      1.61565747	     -0.78007135	    -11.14802713	      8.21044618	      1.08133929	      3.27593201	     -6.56722968	    -11.33396424	    -18.37902405	     13.68959353	      0.76972377	     -3.17568133	      0.41028700	      0.98223490
      0.08000000	     -0.89921049	      3.29226488	    176.80241123	      0.24500131	      0.93024804	      1.04371376	      0.84555310	      1.57646738	     -0.74377494	    -11.20931840	      8.30351112	      1.07759244	      3.34730247	     -6.52785295	    -11.28526589	    -18.56581245	     14.00428769	      0.65724140	     -3.13906212	      0.44975979	      1.04476086
      0.09000000	     -0.77845048	      3.33420952	    176.75827790	      0.24402577	      0.92991353	      1.04469768	      0.98037987	      1.55738067	     -0.72282623	    -11.34683797	      8.38749619	      1.05100445	      3.52116063	     -6.51456691	    -11.26283356	    -18.81031819	     14.28349605	      0.31981081	     -3.03325919	      0.51175744	      1.11343936
      0.10000000	     -0.76774277	      3.33933474	    176.71578173	      0.24289375	      0.92972154	      1.04576425	      0.99981808	      1.48629527	     -0.71063714	    -11.50074489	      8.46410413	      1.04068070	      3.51252315	     -6.43761757	    -11.23194718	    -18.94618104	     14.58363036	      0.23453065	     -3.04540036	      0.52412115	      1.16225157
      0.11000000	     -0.72860315	      3.33493639	    176.67348535	      0.24175877	      0.92945605	      1.04688632	      1.09913716	      1.40679849	     -0.66813246	    -11.74941373	      8.59541725	      0.98432667	      3.55645393	     -6.35310236	    -11.21887653	    -19.12492855	     14.84623116	     -0.11422901	     -3.03127895	      0.52561269	      1.18671165
      0.12000000	     -0.75680455	      3.30383344	    176.64572664	      0.24049528	      0.92927155	      1.04812724	      1.13826163	      1.28821701	     -0.64046956	    -12.02650612	      8.62174809	      0.95693532	      3.48464180	     -6.21936273	    -11.18217966	    -19.22580285	     15.12150726	     -0.20031153	     -3.08812226	      0.49714600	      1.19244831
      0.13000000	     -0.80703700	      3.22291928	    176.61935779	      0.23919020	      0.92907942	      1.04945875	      1.20880538	      1.11119760	     -0.57824495	    -12.41046588	      8.76443454	      0.86563572	      3.38308334	     -6.02105846	    -11.14968940	    -19.31160686	     15.31318762	     -0.54346524	     -3.17305601	      0.41293629	      1.16453483
      0.14000000	     -0.88425015	      3.13625655	    176.60120084	      0.23779070	      0.92888186	      1.05087862	      1.28635109	      0.92392340	     -0.50911671	    -12.86917943	      8.87620499	      0.81813754	      3.22781194	     -5.80877439	    -11.12848803	    -19.35703505	     15.53161005	     -0.66980859	     -3.28745883	      0.32742181	      1.10160315
      0.15000000	     -0.99285345	      2.99198408	    176.57244906	      0.23635531	      0.92868867	      1.05235634	      1.39613979	      0.67108812	     -0.41103945	    -13.44505925	      8.99095598	      0.72834964	      3.02912663	     -5.52178200	    -11.09576968	    -19.38395672	     15.66955137	     -0.90577737	     -3.44106390	      0.17083822	      1.04689613
      0.16000000	     -1.10508738	      2.81792344	    176.53595754	      0.23489748	      0.92842699	      1.05387372	      1.57759271	      0.38770364	     -0.27448020	    -14.16011548	      9.16128149	      0.67410079	      2.82242045	     -5.20238089	    -11.08773034	    -19.40348143	     15.79834507	     -1.00739986	     -3.60638394	     -0.01700434	      0.97060806
      0.17000000	     -1.22382510	      2.60149126	    176.47404380	      0.23340647	      0.92810331	      1.05539798	      1.84568105	      0.06134629	     -0.11034263	    -15.04221952	      9.34037551	      0.62067521	      2.58944120	     -4.83406464	    -11.12352609	    -19.38938803	     15.92217065	     -1.08778051	     -3.78219390	     -0.25227972	      0.87714291
      0.18000000	     -1.35049083	      2.32717306	    176.38141115	      0.23194243	      0.92770529	      1.05687204	      2.21763811	     -0.31606814	      0.11788471	    -16.11874554	      9.55590793	      0.56524195	      2.35078353	     -4.40487231	    -11.18666698	    -19.37672574	     15.99339442	     -1.17170597	     -3.97825702	     -0.56621286	      0.79676985
